<svg width="55" height="69" viewBox="0 0 55 69" fill="none" xmlns="http://www.w3.org/2000/svg">
<path d="M48.09 0C49.912 0 51.6594 0.723801 52.9478 2.01218C54.2362 3.30055 54.96 5.04796 54.96 6.87V61.83C54.96 63.652 54.2362 65.3994 52.9478 66.6878C51.6594 67.9762 49.912 68.7 48.09 68.7H6.87C5.04796 68.7 3.30055 67.9762 2.01218 66.6878C0.723801 65.3994 0 63.652 0 61.83V6.87C0 5.04796 0.723801 3.30055 2.01218 2.01218C3.30055 0.723801 5.04796 0 6.87 0H48.09ZM48.09 6.87H30.915V34.35L22.3275 26.6212L13.74 34.35V6.87H6.87V61.83H48.09V6.87Z" fill="black"/>
</svg>
