<svg width="12" height="12" viewBox="0 0 12 12" fill="none" xmlns="http://www.w3.org/2000/svg">
<path d="M7.5 11.375H4.5C1.785 11.375 0.625 10.215 0.625 7.5V4.5C0.625 1.785 1.785 0.625 4.5 0.625H5.5C5.705 0.625 5.875 0.795 5.875 1C5.875 1.205 5.705 1.375 5.5 1.375H4.5C2.195 1.375 1.375 2.195 1.375 4.5V7.5C1.375 9.805 2.195 10.625 4.5 10.625H7.5C9.805 10.625 10.625 9.805 10.625 7.5V6.5C10.625 6.295 10.795 6.125 11 6.125C11.205 6.125 11.375 6.295 11.375 6.5V7.5C11.375 10.215 10.215 11.375 7.5 11.375Z" fill="#292D32"/>
<path d="M4.25001 8.84503C3.94501 8.84503 3.66501 8.73503 3.46001 8.53503C3.21501 8.29003 3.11001 7.93503 3.16501 7.56003L3.38001 6.05503C3.42001 5.76503 3.61001 5.39003 3.81501 5.18503L7.75501 1.24503C8.75001 0.250029 9.76001 0.250029 10.755 1.24503C11.3 1.79003 11.545 2.34503 11.495 2.90003C11.45 3.35003 11.21 3.79003 10.755 4.24003L6.81501 8.18003C6.61001 8.38503 6.23501 8.57503 5.94501 8.61503L4.44001 8.83003C4.37501 8.84503 4.31001 8.84503 4.25001 8.84503ZM8.28501 1.77503L4.34501 5.71503C4.25001 5.81003 4.14001 6.03003 4.12001 6.16003L3.90501 7.66503C3.88501 7.81003 3.91501 7.93003 3.99001 8.00503C4.06501 8.08003 4.18501 8.11003 4.33001 8.09003L5.83501 7.87503C5.96501 7.85503 6.19001 7.74503 6.28001 7.65003L10.22 3.71003C10.545 3.38503 10.715 3.09503 10.74 2.82503C10.77 2.50003 10.6 2.15503 10.22 1.77003C9.42001 0.970029 8.87001 1.19503 8.28501 1.77503Z" fill="#292D32"/>
<path d="M9.925 4.91501C9.89 4.91501 9.855 4.91001 9.825 4.90001C8.51 4.53001 7.465 3.48501 7.095 2.17001C7.04 1.97001 7.155 1.76501 7.355 1.70501C7.555 1.65001 7.76 1.76501 7.815 1.96501C8.115 3.03001 8.96 3.87501 10.025 4.17501C10.225 4.23001 10.34 4.44001 10.285 4.64001C10.24 4.81001 10.09 4.91501 9.925 4.91501Z" fill="#292D32"/>
</svg>
