<svg width="55" height="67" viewBox="0 0 55 67" fill="none" xmlns="http://www.w3.org/2000/svg">
<path d="M23.3157 20.0438C23.2847 21.3965 22.1785 22.4836 20.8182 22.4836C18.32 22.4836 18.32 19.9818 18.32 19.9818V19.978L18.32 19.9701L18.3202 19.9527C18.3211 19.9038 18.3224 19.855 18.3248 19.8062C18.3287 19.7256 18.3358 19.6244 18.3482 19.5055C18.373 19.2685 18.4198 18.9559 18.5087 18.5927C18.6855 17.8701 19.0383 16.9094 19.7472 15.9519C21.2595 13.9093 23.9766 12.4152 28.356 12.4912C31.5194 12.5462 34.328 13.8731 36.0871 16.0565C37.8758 18.2768 38.4777 21.2852 37.2942 24.2441C36.0877 27.2598 33.3587 28.4583 31.7909 29.1465L31.621 29.2214C30.6933 29.6308 30.249 29.8446 29.9825 30.0581L29.9782 30.0618V32.4737C29.9785 33.8534 28.86 34.9742 27.4803 34.9745C26.1007 34.9745 24.9822 33.8564 24.9818 32.4767V29.9782C24.9818 28.2358 25.8212 26.99 26.8581 26.1591C27.6912 25.4915 28.7378 25.0312 29.4756 24.7067L29.6035 24.6504C31.4078 23.8539 32.2659 23.3612 32.6549 22.3885C33.1369 21.1838 32.9057 20.0719 32.1962 19.1911C31.4568 18.2735 30.1018 17.5187 28.2694 17.4869C25.1544 17.4328 24.1241 18.4369 23.7627 18.925C23.5349 19.2328 23.4193 19.5457 23.362 19.7802C23.3337 19.8955 23.322 19.9824 23.3174 20.0253L23.3157 20.0438Z" fill="#212121"/>
<path d="M27.48 44.9673C29.3196 44.9673 30.8109 43.476 30.8109 41.6364C30.8109 39.7967 29.3196 38.3055 27.48 38.3055C25.6403 38.3055 24.1491 39.7967 24.1491 41.6364C24.1491 43.476 25.6403 44.9673 27.48 44.9673Z" fill="#212121"/>
<path d="M0 8.32727C0 3.72825 3.72825 0 8.32727 0H46.6327C51.2317 0 54.96 3.72825 54.96 8.32727V55.7927C54.96 57.1724 53.8415 58.2909 52.4618 58.2909H4.99636C4.99636 60.1306 6.48768 61.6218 8.32727 61.6218H52.4618C53.8415 61.6218 54.96 62.7403 54.96 64.12C54.96 65.4997 53.8415 66.6182 52.4618 66.6182H8.32727C3.72825 66.6182 0 62.8899 0 58.2909V8.32727ZM4.99636 8.32727V53.2945H49.9636V8.32727C49.9636 6.48768 48.4724 4.99636 46.6327 4.99636H8.32727C6.48768 4.99636 4.99636 6.48768 4.99636 8.32727Z" fill="#212121"/>
</svg>
